<svg xmlns="http://www.w3.org/2000/svg" viewBox="0 0 32 32">
  <defs>
    <linearGradient id="bg" x1="0" y1="0" x2="1" y2="1">
      <stop offset="0%" stop-color="#1a1a3e"/>
      <stop offset="100%" stop-color="#2a2a55"/>
    </linearGradient>
  </defs>
  <rect width="32" height="32" rx="6" fill="url(#bg)"/>
  <!-- Head -->
  <ellipse cx="16" cy="17" rx="10" ry="11" fill="#5a3d2f"/>
  <!-- Snout -->
  <ellipse cx="16" cy="23" rx="5.5" ry="3.5" fill="#6b5244"/>
  <!-- Nostrils -->
  <ellipse cx="14" cy="23" rx="1" ry="1.3" fill="#1a0e08"/>
  <ellipse cx="18" cy="23" rx="1" ry="1.3" fill="#1a0e08"/>
  <!-- Tusks -->
  <path d="M10.5 22 Q9 19 8.5 16 Q8.3 14.5 9.2 15.5 Q9.8 17 10 19 Q10.2 21 11 22 Z" fill="#e8dcc8"/>
  <path d="M21.5 22 Q23 19 23.5 16 Q23.7 14.5 22.8 15.5 Q22.2 17 22 19 Q21.8 21 21 22 Z" fill="#e8dcc8"/>
  <!-- Eyes - fierce -->
  <path d="M10 14 L14 13 L14.5 15.5 L10.5 16 Z" fill="#0d0805"/>
  <path d="M22 14 L18 13 L17.5 15.5 L21.5 16 Z" fill="#0d0805"/>
  <ellipse cx="12.5" cy="14.5" rx="1" ry="0.8" fill="#c4900a"/>
  <ellipse cx="19.5" cy="14.5" rx="1" ry="0.8" fill="#c4900a"/>
  <!-- Ears -->
  <path d="M7 8 Q6 3 9 2.5 Q10.5 2 11 5 Q11 7 10 8 Z" fill="#5a3d2f"/>
  <path d="M25 8 Q26 3 23 2.5 Q21.5 2 21 5 Q21 7 22 8 Z" fill="#5a3d2f"/>
</svg>